<svg width="24" height="24" viewBox="0 0 24 24" fill="none" xmlns="http://www.w3.org/2000/svg">
<mask id="path-1-inside-1_284_6096" fill="#FFFFFF">
<path d="M23.376 15.252C23.0402 14.6043 22.4626 14.115 21.7685 13.8904C21.0743 13.6657 20.3196 13.7238 19.668 14.052L15.6 16.056C15.563 15.2856 15.2306 14.559 14.672 14.0272C14.1133 13.4953 13.3713 13.1991 12.6 13.2H7.2C7.04785 13.1978 6.89682 13.2263 6.756 13.284L0.756001 15.684C0.532722 15.7729 0.341289 15.9268 0.206497 16.1258C0.0717062 16.3248 -0.000232096 16.5597 5.62556e-07 16.8V22.8C5.62556e-07 23.1183 0.126429 23.4235 0.351472 23.6485C0.576516 23.8736 0.881741 24 1.2 24H13.2C13.4154 23.9999 13.6268 23.9419 13.812 23.832L22.62 18.624C22.7059 18.5777 22.783 18.5168 22.848 18.444C23.2607 18.0352 23.534 17.5066 23.6288 16.9335C23.7236 16.3604 23.6351 15.7719 23.376 15.252ZM21.216 16.668L12.876 21.6H2.4V17.616L7.428 15.6H12.6C12.7591 15.6 12.9117 15.6632 13.0243 15.7757C13.1368 15.8883 13.2 16.0409 13.2 16.2C13.2 16.3591 13.1368 16.5117 13.0243 16.6243C12.9117 16.7368 12.7591 16.8 12.6 16.8H9.6C9.28174 16.8 8.97652 16.9264 8.75147 17.1515C8.52643 17.3765 8.4 17.6817 8.4 18C8.4 18.3183 8.52643 18.6235 8.75147 18.8485C8.97652 19.0736 9.28174 19.2 9.6 19.2H14.4C14.5879 19.1989 14.7728 19.1537 14.94 19.068L20.748 16.176C20.7895 16.1535 20.8352 16.1397 20.8822 16.1353C20.9292 16.131 20.9766 16.1363 21.0215 16.1509C21.0664 16.1655 21.1079 16.1891 21.1434 16.2202C21.1789 16.2514 21.2077 16.2894 21.228 16.332C21.2525 16.385 21.2642 16.4431 21.2621 16.5014C21.26 16.5598 21.2442 16.6169 21.216 16.668ZM7.2 7.2H7.992C8.07289 7.47045 8.18146 7.73183 8.316 7.98L7.752 8.544C7.63953 8.65556 7.55025 8.78828 7.48933 8.93451C7.42841 9.08074 7.39704 9.23759 7.39704 9.396C7.39704 9.55441 7.42841 9.71126 7.48933 9.85749C7.55025 10.0037 7.63953 10.1364 7.752 10.248C7.86356 10.3605 7.99628 10.4497 8.14251 10.5107C8.28874 10.5716 8.44559 10.603 8.604 10.603C8.76241 10.603 8.91926 10.5716 9.06549 10.5107C9.21172 10.4497 9.34445 10.3605 9.456 10.248L10.02 9.684C10.2682 9.81854 10.5295 9.92711 10.8 10.008V10.8C10.8 11.1183 10.9264 11.4235 11.1515 11.6485C11.3765 11.8736 11.6817 12 12 12C12.3183 12 12.6235 11.8736 12.8485 11.6485C13.0736 11.4235 13.2 11.1183 13.2 10.8V10.008C13.4705 9.92711 13.7318 9.81854 13.98 9.684L14.544 10.248C14.6556 10.3605 14.7883 10.4497 14.9345 10.5107C15.0807 10.5716 15.2376 10.603 15.396 10.603C15.5544 10.603 15.7113 10.5716 15.8575 10.5107C16.0037 10.4497 16.1364 10.3605 16.248 10.248C16.3605 10.1364 16.4497 10.0037 16.5107 9.85749C16.5716 9.71126 16.603 9.55441 16.603 9.396C16.603 9.23759 16.5716 9.08074 16.5107 8.93451C16.4497 8.78828 16.3605 8.65556 16.248 8.544L15.684 7.98C15.8185 7.73183 15.9271 7.47045 16.008 7.2H16.8C17.1183 7.2 17.4235 7.07357 17.6485 6.84853C17.8736 6.62348 18 6.31826 18 6C18 5.68174 17.8736 5.37652 17.6485 5.15147C17.4235 4.92643 17.1183 4.8 16.8 4.8H16.008C15.9271 4.52955 15.8185 4.26817 15.684 4.02L16.248 3.456C16.3599 3.34411 16.4486 3.21129 16.5092 3.0651C16.5697 2.91891 16.6009 2.76223 16.6009 2.604C16.6009 2.44577 16.5697 2.28909 16.5092 2.1429C16.4486 1.99671 16.3599 1.86389 16.248 1.752C16.1361 1.64011 16.0033 1.55136 15.8571 1.49081C15.7109 1.43026 15.5542 1.39909 15.396 1.39909C15.0764 1.39909 14.77 1.52604 14.544 1.752L13.98 2.316C13.7318 2.18146 13.4705 2.07289 13.2 1.992V1.2C13.2 0.88174 13.0736 0.576515 12.8485 0.351472C12.6235 0.126428 12.3183 0 12 0C11.6817 0 11.3765 0.126428 11.1515 0.351472C10.9264 0.576515 10.8 0.88174 10.8 1.2V1.992C10.5295 2.07289 10.2682 2.18146 10.02 2.316L9.456 1.752C9.34412 1.64011 9.21129 1.55136 9.0651 1.49081C8.91891 1.43026 8.76223 1.39909 8.604 1.39909C8.44577 1.39909 8.28909 1.43026 8.1429 1.49081C7.99672 1.55136 7.86389 1.64011 7.752 1.752C7.52604 1.97796 7.39909 2.28444 7.39909 2.604C7.39909 2.92356 7.52604 3.23004 7.752 3.456L8.316 4.02C8.18146 4.26817 8.07289 4.52955 7.992 4.8H7.2C6.88174 4.8 6.57652 4.92643 6.35147 5.15147C6.12643 5.37652 6 5.68174 6 6C6 6.31826 6.12643 6.62348 6.35147 6.84853C6.57652 7.07357 6.88174 7.2 7.2 7.2ZM12 4.2C12.356 4.2 12.704 4.30557 13 4.50336C13.296 4.70114 13.5267 4.98226 13.663 5.31117C13.7992 5.64008 13.8349 6.002 13.7654 6.35116C13.696 6.70033 13.5245 7.02106 13.2728 7.27279C13.0211 7.52453 12.7003 7.69596 12.3512 7.76541C12.002 7.83487 11.6401 7.79922 11.3112 7.66298C10.9823 7.52675 10.7011 7.29604 10.5034 7.00003C10.3056 6.70402 10.2 6.35601 10.2 6C10.2 5.52261 10.3896 5.06477 10.7272 4.72721C11.0648 4.38964 11.5226 4.2 12 4.2Z"/>
</mask>
<path d="M23.376 15.252C23.0402 14.6043 22.4626 14.115 21.7685 13.8904C21.0743 13.6657 20.3196 13.7238 19.668 14.052L15.6 16.056C15.563 15.2856 15.2306 14.559 14.672 14.0272C14.1133 13.4953 13.3713 13.1991 12.6 13.2H7.2C7.04785 13.1978 6.89682 13.2263 6.756 13.284L0.756001 15.684C0.532722 15.7729 0.341289 15.9268 0.206497 16.1258C0.0717062 16.3248 -0.000232096 16.5597 5.62556e-07 16.8V22.8C5.62556e-07 23.1183 0.126429 23.4235 0.351472 23.6485C0.576516 23.8736 0.881741 24 1.2 24H13.2C13.4154 23.9999 13.6268 23.9419 13.812 23.832L22.62 18.624C22.7059 18.5777 22.783 18.5168 22.848 18.444C23.2607 18.0352 23.534 17.5066 23.6288 16.9335C23.7236 16.3604 23.6351 15.7719 23.376 15.252ZM21.216 16.668L12.876 21.6H2.4V17.616L7.428 15.6H12.6C12.7591 15.6 12.9117 15.6632 13.0243 15.7757C13.1368 15.8883 13.2 16.0409 13.2 16.2C13.2 16.3591 13.1368 16.5117 13.0243 16.6243C12.9117 16.7368 12.7591 16.8 12.6 16.8H9.6C9.28174 16.8 8.97652 16.9264 8.75147 17.1515C8.52643 17.3765 8.4 17.6817 8.4 18C8.4 18.3183 8.52643 18.6235 8.75147 18.8485C8.97652 19.0736 9.28174 19.2 9.6 19.2H14.4C14.5879 19.1989 14.7728 19.1537 14.94 19.068L20.748 16.176C20.7895 16.1535 20.8352 16.1397 20.8822 16.1353C20.9292 16.131 20.9766 16.1363 21.0215 16.1509C21.0664 16.1655 21.1079 16.1891 21.1434 16.2202C21.1789 16.2514 21.2077 16.2894 21.228 16.332C21.2525 16.385 21.2642 16.4431 21.2621 16.5014C21.26 16.5598 21.2442 16.6169 21.216 16.668ZM7.2 7.2H7.992C8.07289 7.47045 8.18146 7.73183 8.316 7.98L7.752 8.544C7.63953 8.65556 7.55025 8.78828 7.48933 8.93451C7.42841 9.08074 7.39704 9.23759 7.39704 9.396C7.39704 9.55441 7.42841 9.71126 7.48933 9.85749C7.55025 10.0037 7.63953 10.1364 7.752 10.248C7.86356 10.3605 7.99628 10.4497 8.14251 10.5107C8.28874 10.5716 8.44559 10.603 8.604 10.603C8.76241 10.603 8.91926 10.5716 9.06549 10.5107C9.21172 10.4497 9.34445 10.3605 9.456 10.248L10.02 9.684C10.2682 9.81854 10.5295 9.92711 10.8 10.008V10.8C10.8 11.1183 10.9264 11.4235 11.1515 11.6485C11.3765 11.8736 11.6817 12 12 12C12.3183 12 12.6235 11.8736 12.8485 11.6485C13.0736 11.4235 13.2 11.1183 13.2 10.8V10.008C13.4705 9.92711 13.7318 9.81854 13.98 9.684L14.544 10.248C14.6556 10.3605 14.7883 10.4497 14.9345 10.5107C15.0807 10.5716 15.2376 10.603 15.396 10.603C15.5544 10.603 15.7113 10.5716 15.8575 10.5107C16.0037 10.4497 16.1364 10.3605 16.248 10.248C16.3605 10.1364 16.4497 10.0037 16.5107 9.85749C16.5716 9.71126 16.603 9.55441 16.603 9.396C16.603 9.23759 16.5716 9.08074 16.5107 8.93451C16.4497 8.78828 16.3605 8.65556 16.248 8.544L15.684 7.98C15.8185 7.73183 15.9271 7.47045 16.008 7.2H16.8C17.1183 7.2 17.4235 7.07357 17.6485 6.84853C17.8736 6.62348 18 6.31826 18 6C18 5.68174 17.8736 5.37652 17.6485 5.15147C17.4235 4.92643 17.1183 4.8 16.8 4.8H16.008C15.9271 4.52955 15.8185 4.26817 15.684 4.02L16.248 3.456C16.3599 3.34411 16.4486 3.21129 16.5092 3.0651C16.5697 2.91891 16.6009 2.76223 16.6009 2.604C16.6009 2.44577 16.5697 2.28909 16.5092 2.1429C16.4486 1.99671 16.3599 1.86389 16.248 1.752C16.1361 1.64011 16.0033 1.55136 15.8571 1.49081C15.7109 1.43026 15.5542 1.39909 15.396 1.39909C15.0764 1.39909 14.77 1.52604 14.544 1.752L13.98 2.316C13.7318 2.18146 13.4705 2.07289 13.2 1.992V1.2C13.2 0.88174 13.0736 0.576515 12.8485 0.351472C12.6235 0.126428 12.3183 0 12 0C11.6817 0 11.3765 0.126428 11.1515 0.351472C10.9264 0.576515 10.8 0.88174 10.8 1.2V1.992C10.5295 2.07289 10.2682 2.18146 10.02 2.316L9.456 1.752C9.34412 1.64011 9.21129 1.55136 9.0651 1.49081C8.91891 1.43026 8.76223 1.39909 8.604 1.39909C8.44577 1.39909 8.28909 1.43026 8.1429 1.49081C7.99672 1.55136 7.86389 1.64011 7.752 1.752C7.52604 1.97796 7.39909 2.28444 7.39909 2.604C7.39909 2.92356 7.52604 3.23004 7.752 3.456L8.316 4.02C8.18146 4.26817 8.07289 4.52955 7.992 4.8H7.2C6.88174 4.8 6.57652 4.92643 6.35147 5.15147C6.12643 5.37652 6 5.68174 6 6C6 6.31826 6.12643 6.62348 6.35147 6.84853C6.57652 7.07357 6.88174 7.2 7.2 7.2ZM12 4.2C12.356 4.2 12.704 4.30557 13 4.50336C13.296 4.70114 13.5267 4.98226 13.663 5.31117C13.7992 5.64008 13.8349 6.002 13.7654 6.35116C13.696 6.70033 13.5245 7.02106 13.2728 7.27279C13.0211 7.52453 12.7003 7.69596 12.3512 7.76541C12.002 7.83487 11.6401 7.79922 11.3112 7.66298C10.9823 7.52675 10.7011 7.29604 10.5034 7.00003C10.3056 6.70402 10.2 6.35601 10.2 6C10.2 5.52261 10.3896 5.06477 10.7272 4.72721C11.0648 4.38964 11.5226 4.2 12 4.2Z" stroke="#FFFFFF" stroke-width="3" mask="url(#path-1-inside-1_284_6096)"/>
</svg>
